<svg width="109" height="35" viewBox="0 0 109 35" fill="none" xmlns="http://www.w3.org/2000/svg">
<rect x="1" y="1" width="31" height="31" stroke="black" stroke-width="2"/>
<path d="M22.0223 21.368C22.0223 22.888 21.4703 24.08 20.3663 24.944C19.2623 25.808 17.7503 26.24 15.8303 26.24C14.9023 26.24 14.0223 26.16 13.1903 26C12.3743 25.856 11.6783 25.64 11.1023 25.352V22.904C11.7423 23.192 12.4943 23.456 13.3583 23.696C14.2223 23.92 15.1023 24.032 15.9983 24.032C17.1503 24.032 18.0143 23.808 18.5903 23.36C19.1663 22.912 19.4543 22.312 19.4543 21.56C19.4543 21.032 19.3183 20.592 19.0463 20.24C18.7903 19.872 18.3823 19.536 17.8223 19.232C17.2623 18.928 16.5263 18.592 15.6143 18.224C14.7663 17.904 14.0143 17.528 13.3583 17.096C12.7183 16.664 12.2143 16.128 11.8463 15.488C11.4783 14.848 11.2943 14.064 11.2943 13.136C11.2943 11.728 11.8063 10.624 12.8303 9.824C13.8543 9.024 15.1983 8.624 16.8623 8.624C17.7903 8.624 18.6463 8.72 19.4303 8.912C20.2303 9.088 20.9903 9.336 21.7103 9.656L20.8943 11.792C20.2383 11.52 19.5663 11.296 18.8783 11.12C18.2063 10.944 17.5103 10.856 16.7903 10.856C15.8463 10.856 15.1263 11.064 14.6303 11.48C14.1343 11.896 13.8863 12.44 13.8863 13.112C13.8863 13.64 14.0063 14.088 14.2463 14.456C14.4863 14.808 14.8703 15.128 15.3983 15.416C15.9263 15.704 16.6223 16.024 17.4863 16.376C18.4463 16.76 19.2623 17.168 19.9343 17.6C20.6223 18.016 21.1423 18.528 21.4943 19.136C21.8463 19.728 22.0223 20.472 22.0223 21.368Z" fill="black"/>
<path d="M20.3663 24.944L22.2153 27.3065L22.2153 27.3065L20.3663 24.944ZM13.1903 26L13.7569 23.054L13.7343 23.0496L13.7117 23.0456L13.1903 26ZM11.1023 25.352H8.10234V27.2061L9.7607 28.0353L11.1023 25.352ZM11.1023 22.904L12.3334 20.1682L8.10234 18.2642V22.904H11.1023ZM13.3583 23.696L12.5554 26.5866L12.5804 26.5935L12.6055 26.6L13.3583 23.696ZM19.0463 20.24L16.5836 21.9532L16.6265 22.0149L16.6725 22.0743L19.0463 20.24ZM17.8223 19.232L16.3911 21.8686L16.3911 21.8686L17.8223 19.232ZM15.6143 18.224L16.7369 15.4419L16.7054 15.4292L16.6735 15.4172L15.6143 18.224ZM13.3583 17.096L11.6799 19.5825L11.6941 19.5921L11.7084 19.6015L13.3583 17.096ZM11.8463 15.488L9.24562 16.9834L9.24563 16.9834L11.8463 15.488ZM12.8303 9.824L14.6773 12.1881L14.6773 12.1881L12.8303 9.824ZM19.4303 8.912L18.7167 11.8259L18.7512 11.8343L18.7858 11.8419L19.4303 8.912ZM21.7103 9.656L24.5128 10.7266L25.5278 8.0697L22.9288 6.91456L21.7103 9.656ZM20.8943 11.792L19.7453 14.5632L22.5956 15.7451L23.6968 12.8626L20.8943 11.792ZM18.8783 11.12L18.1183 14.0221L18.1265 14.0243L18.1348 14.0264L18.8783 11.12ZM14.6303 11.48L16.5582 13.7786L16.5582 13.7786L14.6303 11.48ZM14.2463 14.456L11.7335 16.0948L11.7503 16.1206L11.7677 16.146L14.2463 14.456ZM17.4863 16.376L16.3545 19.1543L16.3633 19.1579L16.3722 19.1614L17.4863 16.376ZM19.9343 17.6L18.3121 20.1235L18.3468 20.1458L18.3821 20.1672L19.9343 17.6ZM21.4943 19.136L18.8981 20.6391L18.9068 20.6542L18.9157 20.6692L21.4943 19.136ZM19.0223 21.368C19.0223 22.0548 18.8273 22.339 18.5174 22.5815L22.2153 27.3065C24.1134 25.821 25.0223 23.7212 25.0223 21.368H19.0223ZM18.5174 22.5815C18.1062 22.9033 17.325 23.24 15.8303 23.24V29.24C18.1757 29.24 20.4185 28.7127 22.2153 27.3065L18.5174 22.5815ZM15.8303 23.24C15.0747 23.24 14.3855 23.1749 13.7569 23.054L12.6238 28.946C13.6592 29.1451 14.73 29.24 15.8303 29.24V23.24ZM13.7117 23.0456C13.1036 22.9383 12.6993 22.7964 12.444 22.6687L9.7607 28.0353C10.6574 28.4836 11.6451 28.7737 12.669 28.9544L13.7117 23.0456ZM14.1023 25.352V22.904H8.10234V25.352H14.1023ZM9.87125 25.6398C10.6817 26.0045 11.583 26.3164 12.5554 26.5866L14.1613 20.8054C13.4057 20.5956 12.803 20.3795 12.3334 20.1682L9.87125 25.6398ZM12.6055 26.6C13.7163 26.888 14.8493 27.032 15.9983 27.032V21.032C15.3554 21.032 14.7284 20.952 14.1112 20.792L12.6055 26.6ZM15.9983 27.032C17.4564 27.032 19.102 26.7626 20.4322 25.7281L16.7485 20.9919C16.8467 20.9156 16.8798 20.9283 16.7575 20.96C16.6305 20.9929 16.3897 21.032 15.9983 21.032V27.032ZM20.4322 25.7281C21.7646 24.6917 22.4543 23.2048 22.4543 21.56H16.4543C16.4543 21.5453 16.4594 21.4307 16.5338 21.2758C16.6095 21.1181 16.7059 21.0251 16.7485 20.9919L20.4322 25.7281ZM22.4543 21.56C22.4543 20.4966 22.1703 19.3763 21.4202 18.4057L16.6725 22.0743C16.5812 21.9562 16.5204 21.8307 16.4861 21.7199C16.4536 21.6145 16.4543 21.5532 16.4543 21.56H22.4543ZM21.5091 18.5268C20.8976 17.6478 20.0628 17.0347 19.2536 16.5954L16.3911 21.8686C16.5357 21.9471 16.6117 22.0035 16.6412 22.0278C16.6701 22.0516 16.6374 22.0305 16.5836 21.9532L21.5091 18.5268ZM19.2536 16.5954C18.5553 16.2163 17.7045 15.8324 16.7369 15.4419L14.4918 21.0061C15.3482 21.3516 15.9694 21.6397 16.3911 21.8686L19.2536 16.5954ZM16.6735 15.4172C16.002 15.1638 15.4534 14.8836 15.0083 14.5905L11.7084 19.6015C12.5753 20.1724 13.5307 20.6442 14.5552 21.0308L16.6735 15.4172ZM15.0368 14.6095C14.7578 14.4212 14.5766 14.218 14.4471 13.9926L9.24563 16.9834C9.85204 18.038 10.6789 18.9068 11.6799 19.5825L15.0368 14.6095ZM14.4471 13.9926C14.3998 13.9104 14.2943 13.6722 14.2943 13.136H8.29434C8.29434 14.4558 8.55687 15.7856 9.24562 16.9834L14.4471 13.9926ZM14.2943 13.136C14.2943 12.5627 14.4482 12.367 14.6773 12.1881L10.9834 7.45993C9.16448 8.88097 8.29434 10.8933 8.29434 13.136H14.2943ZM14.6773 12.1881C15.0414 11.9036 15.6777 11.624 16.8623 11.624V5.624C14.719 5.624 12.6673 6.14441 10.9834 7.45993L14.6773 12.1881ZM16.8623 11.624C17.5849 11.624 18.198 11.6989 18.7167 11.8259L20.144 5.99811C19.0947 5.74114 17.9958 5.624 16.8623 5.624V11.624ZM18.7858 11.8419C19.3964 11.9763 19.9635 12.1626 20.4919 12.3974L22.9288 6.91456C22.0172 6.50941 21.0643 6.19972 20.0749 5.98207L18.7858 11.8419ZM18.9079 8.5854L18.0919 10.7214L23.6968 12.8626L24.5128 10.7266L18.9079 8.5854ZM22.0434 9.02077C21.2556 8.69413 20.4481 8.42495 19.6218 8.21359L18.1348 14.0264C18.6846 14.167 19.2211 14.3459 19.7453 14.5632L22.0434 9.02077ZM19.6384 8.21788C18.7094 7.97456 17.7575 7.856 16.7903 7.856V13.856C17.2632 13.856 17.7033 13.9134 18.1183 14.0221L19.6384 8.21788ZM16.7903 7.856C15.4561 7.856 13.9389 8.14448 12.7025 9.18143L16.5582 13.7786C16.4391 13.8784 16.3538 13.9002 16.375 13.8941C16.4048 13.8855 16.5306 13.856 16.7903 13.856V7.856ZM12.7025 9.18142C11.4977 10.1919 10.8863 11.5918 10.8863 13.112H16.8863C16.8863 13.152 16.8771 13.2799 16.8021 13.4444C16.7256 13.6121 16.6238 13.7235 16.5582 13.7786L12.7025 9.18142ZM10.8863 13.112C10.8863 14.1031 11.1164 15.1485 11.7335 16.0948L16.7592 12.8172C16.8217 12.913 16.8568 13.0028 16.8742 13.0678C16.8906 13.1291 16.8863 13.1494 16.8863 13.112H10.8863ZM11.7677 16.146C12.3625 17.0185 13.1777 17.622 13.9618 18.0497L16.8349 12.7823C16.7092 12.7138 16.6501 12.668 16.6349 12.6553C16.6206 12.6434 16.664 12.6765 16.725 12.766L11.7677 16.146ZM13.9618 18.0497C14.6267 18.4124 15.4363 18.7802 16.3545 19.1543L18.6182 13.5977C17.8084 13.2678 17.226 12.9956 16.8349 12.7823L13.9618 18.0497ZM16.3722 19.1614C17.2036 19.494 17.8395 19.8198 18.3121 20.1235L21.5566 15.0765C20.6851 14.5162 19.6891 14.026 18.6005 13.5906L16.3722 19.1614ZM18.3821 20.1672C18.7012 20.3601 18.8335 20.5276 18.8981 20.6391L24.0906 17.6329C23.4512 16.5284 22.5435 15.6719 21.4866 15.0328L18.3821 20.1672ZM18.9157 20.6692C18.9207 20.6776 19.0223 20.8529 19.0223 21.368H25.0223C25.0223 20.0911 24.7719 18.7784 24.073 17.6028L18.9157 20.6692Z" fill="white"/>
<path d="M33.551 31.76V26.264C33.551 25.96 33.559 25.624 33.575 25.256C33.607 24.888 33.647 24.56 33.695 24.272H33.551C33.183 24.832 32.679 25.304 32.039 25.688C31.415 26.056 30.607 26.24 29.615 26.24C28.079 26.24 26.831 25.68 25.871 24.56C24.927 23.44 24.455 21.776 24.455 19.568C24.455 17.344 24.935 15.664 25.895 14.528C26.871 13.392 28.135 12.824 29.687 12.824C30.679 12.824 31.487 13.016 32.111 13.4C32.735 13.784 33.239 14.248 33.623 14.792H33.719L34.031 13.064H36.095V31.76H33.551ZM30.263 24.176C31.479 24.176 32.343 23.832 32.855 23.144C33.367 22.456 33.631 21.416 33.647 20.024V19.592C33.647 18.056 33.399 16.896 32.903 16.112C32.407 15.312 31.511 14.912 30.215 14.912C29.159 14.912 28.367 15.336 27.839 16.184C27.327 17.016 27.071 18.16 27.071 19.616C27.071 21.072 27.327 22.2 27.839 23C28.367 23.784 29.175 24.176 30.263 24.176ZM51.2178 13.064V26H49.1778L48.8178 24.296H48.6978C48.2818 24.968 47.7058 25.464 46.9698 25.784C46.2338 26.088 45.4578 26.24 44.6418 26.24C43.1218 26.24 41.9618 25.864 41.1618 25.112C40.3618 24.36 39.9618 23.168 39.9618 21.536V13.064H42.5298V21.152C42.5298 23.152 43.4018 24.152 45.1458 24.152C46.4738 24.152 47.3938 23.76 47.9058 22.976C48.4178 22.192 48.6738 21.072 48.6738 19.616V13.064H51.2178ZM60.287 12.824C61.983 12.824 63.319 13.352 64.295 14.408C65.271 15.448 65.759 16.872 65.759 18.68V20.072H57.071C57.103 21.4 57.447 22.416 58.103 23.12C58.775 23.824 59.711 24.176 60.911 24.176C61.743 24.176 62.479 24.104 63.119 23.96C63.775 23.8 64.447 23.568 65.135 23.264V25.376C64.479 25.664 63.823 25.88 63.167 26.024C62.511 26.168 61.727 26.24 60.815 26.24C59.551 26.24 58.439 25.992 57.479 25.496C56.535 25 55.791 24.264 55.247 23.288C54.719 22.296 54.455 21.08 54.455 19.64C54.455 18.184 54.695 16.952 55.175 15.944C55.671 14.936 56.351 14.168 57.215 13.64C58.095 13.096 59.119 12.824 60.287 12.824ZM60.287 14.792C59.375 14.792 58.639 15.088 58.079 15.68C57.535 16.272 57.215 17.112 57.119 18.2H63.215C63.199 17.192 62.951 16.376 62.471 15.752C62.007 15.112 61.279 14.792 60.287 14.792ZM75.3174 12.824C75.5414 12.824 75.7814 12.84 76.0374 12.872C76.3094 12.888 76.5414 12.912 76.7334 12.944L76.4694 15.32C76.0534 15.208 75.6214 15.152 75.1734 15.152C74.5334 15.152 73.9254 15.312 73.3494 15.632C72.7894 15.952 72.3334 16.416 71.9814 17.024C71.6454 17.616 71.4774 18.336 71.4774 19.184V26H68.9334V13.064H70.9494L71.2854 15.368H71.3814C71.7974 14.68 72.3334 14.088 72.9894 13.592C73.6454 13.08 74.4214 12.824 75.3174 12.824ZM77.1607 13.064H79.8967L82.5847 20.408C82.7927 20.968 82.9687 21.512 83.1127 22.04C83.2727 22.552 83.3927 23.056 83.4727 23.552H83.5687C83.6487 23.136 83.7687 22.648 83.9287 22.088C84.1047 21.528 84.2967 20.96 84.5047 20.384L87.0487 13.064H89.7847L84.2407 27.752C83.7767 29 83.1527 29.976 82.3687 30.68C81.6007 31.4 80.5927 31.76 79.3447 31.76C78.9447 31.76 78.6007 31.736 78.3127 31.688C78.0247 31.656 77.7767 31.616 77.5687 31.568V29.552C77.7287 29.584 77.9367 29.616 78.1927 29.648C78.4487 29.68 78.7127 29.696 78.9847 29.696C79.7207 29.696 80.3127 29.48 80.7607 29.048C81.2087 28.632 81.5607 28.08 81.8167 27.392L82.3447 26L77.1607 13.064Z" fill="black"/>
<path d="M33.551 31.76H30.551V34.76H33.551V31.76ZM33.575 25.256L30.5863 24.9961L30.5807 25.0608L30.5779 25.1257L33.575 25.256ZM33.695 24.272L36.6542 24.7652L37.2364 21.272H33.695V24.272ZM33.551 24.272V21.272H31.9327L31.0439 22.6245L33.551 24.272ZM32.039 25.688L33.563 28.2721L33.5728 28.2663L33.5825 28.2605L32.039 25.688ZM25.871 24.56L23.5771 26.4934L23.5852 26.5029L23.5933 26.5124L25.871 24.56ZM25.895 14.528L23.6195 12.573L23.6115 12.5823L23.6036 12.5916L25.895 14.528ZM33.623 14.792L31.1721 16.522L32.0686 17.792H33.623V14.792ZM33.719 14.792V17.792H36.2259L36.6713 15.325L33.719 14.792ZM34.031 13.064V10.064H31.5242L31.0788 12.531L34.031 13.064ZM36.095 13.064H39.095V10.064H36.095V13.064ZM36.095 31.76V34.76H39.095V31.76H36.095ZM33.647 20.024L36.6468 20.0585L36.647 20.0412V20.024H33.647ZM32.903 16.112L30.3533 17.6928L30.3605 17.7044L30.3678 17.7159L32.903 16.112ZM27.839 16.184L25.2923 14.5983L25.2882 14.605L25.2841 14.6117L27.839 16.184ZM27.839 23L25.3122 24.6172L25.3311 24.6467L25.3507 24.6758L27.839 23ZM36.551 31.76V26.264H30.551V31.76H36.551ZM36.551 26.264C36.551 26.0114 36.5577 25.7196 36.5722 25.3863L30.5779 25.1257C30.5604 25.5284 30.551 25.9086 30.551 26.264H36.551ZM36.5638 25.5159C36.5906 25.2066 36.622 24.9588 36.6542 24.7652L30.7358 23.7788C30.6721 24.1612 30.6234 24.5694 30.5863 24.9961L36.5638 25.5159ZM33.695 21.272H33.551V27.272H33.695V21.272ZM31.0439 22.6245C30.9505 22.7666 30.7933 22.9369 30.4955 23.1155L33.5825 28.2605C34.5647 27.6711 35.4156 26.8974 36.0581 25.9195L31.0439 22.6245ZM30.5151 23.1039C30.4928 23.1171 30.261 23.24 29.615 23.24V29.24C30.9531 29.24 32.3373 28.9949 33.563 28.2721L30.5151 23.1039ZM29.615 23.24C28.9135 23.24 28.5125 23.0319 28.1488 22.6076L23.5933 26.5124C25.1496 28.3281 27.2446 29.24 29.615 29.24V23.24ZM28.1649 22.6266C27.8588 22.2634 27.455 21.414 27.455 19.568H21.455C21.455 22.138 21.9953 24.6166 23.5771 26.4934L28.1649 22.6266ZM27.455 19.568C27.455 17.7137 27.8634 16.8466 28.1864 16.4644L23.6036 12.5916C22.0066 14.4814 21.455 16.9743 21.455 19.568H27.455ZM28.1705 16.483C28.5534 16.0374 28.9733 15.824 29.687 15.824V9.824C27.2968 9.824 25.1887 10.7466 23.6195 12.573L28.1705 16.483ZM29.687 15.824C30.3139 15.824 30.5268 15.9476 30.5387 15.955L33.6833 10.845C32.4473 10.0844 31.0442 9.824 29.687 9.824V15.824ZM30.5387 15.955C30.852 16.1477 31.0447 16.3415 31.1721 16.522L36.0739 13.062C35.4334 12.1545 34.6181 11.4203 33.6833 10.845L30.5387 15.955ZM33.623 17.792H33.719V11.792H33.623V17.792ZM36.6713 15.325L36.9833 13.597L31.0788 12.531L30.7668 14.259L36.6713 15.325ZM34.031 16.064H36.095V10.064H34.031V16.064ZM33.095 13.064V31.76H39.095V13.064H33.095ZM36.095 28.76H33.551V34.76H36.095V28.76ZM30.263 27.176C32.0067 27.176 33.9724 26.6675 35.2617 24.935L30.4483 21.353C30.4928 21.2933 30.5473 21.2388 30.605 21.1955C30.6615 21.1532 30.703 21.1349 30.7133 21.1308C30.7217 21.1274 30.6948 21.1392 30.6195 21.1517C30.5437 21.1642 30.4274 21.176 30.263 21.176V27.176ZM35.2617 24.935C36.3223 23.51 36.6277 21.7219 36.6468 20.0585L30.6472 19.9895C30.6412 20.5143 30.5886 20.8763 30.5293 21.1099C30.4704 21.3417 30.4193 21.392 30.4483 21.353L35.2617 24.935ZM36.647 20.024V19.592H30.647V20.024H36.647ZM36.647 19.592C36.647 17.822 36.3772 15.9921 35.4383 14.5081L30.3678 17.7159C30.4209 17.7999 30.647 18.29 30.647 19.592H36.647ZM35.4527 14.5312C34.2144 12.5338 32.115 11.912 30.215 11.912V17.912C30.3869 17.912 30.5031 17.9254 30.5735 17.9383C30.6429 17.9509 30.6581 17.9612 30.6361 17.9514C30.6114 17.9404 30.559 17.9125 30.4972 17.8592C30.4346 17.8053 30.386 17.7456 30.3533 17.6928L35.4527 14.5312ZM30.215 11.912C28.1944 11.912 26.4048 12.8117 25.2923 14.5983L30.3857 17.7697C30.3986 17.749 30.3945 17.7605 30.3662 17.7877C30.3367 17.8162 30.295 17.848 30.245 17.8748C30.1955 17.9013 30.1577 17.9122 30.1434 17.9155C30.1311 17.9184 30.1516 17.912 30.215 17.912V11.912ZM25.2841 14.6117C24.3718 16.0942 24.071 17.8589 24.071 19.616H30.071C30.071 18.4611 30.2823 17.9378 30.394 17.7563L25.2841 14.6117ZM24.071 19.616C24.071 21.3622 24.3677 23.1413 25.3122 24.6172L30.3658 21.3828C30.2864 21.2587 30.071 20.7818 30.071 19.616H24.071ZM25.3507 24.6758C26.5274 26.4231 28.3521 27.176 30.263 27.176V21.176C30.0782 21.176 30.0691 21.1434 30.1505 21.1829C30.1896 21.2019 30.2318 21.2292 30.2697 21.2626C30.307 21.2954 30.3249 21.3205 30.3273 21.3242L25.3507 24.6758ZM51.2178 13.064H54.2178V10.064H51.2178V13.064ZM51.2178 26V29H54.2178V26H51.2178ZM49.1778 26L46.2426 26.6201L46.7454 29H49.1778V26ZM48.8178 24.296L51.7531 23.6759L51.2503 21.296H48.8178V24.296ZM48.6978 24.296V21.296H47.0267L46.147 22.7169L48.6978 24.296ZM46.9698 25.784L48.1151 28.5568L48.1407 28.5462L48.166 28.5352L46.9698 25.784ZM41.1618 25.112L43.2166 22.9261L43.2166 22.9261L41.1618 25.112ZM39.9618 13.064V10.064H36.9618V13.064H39.9618ZM42.5298 13.064H45.5298V10.064H42.5298V13.064ZM47.9058 22.976L50.4177 24.6164L50.4177 24.6164L47.9058 22.976ZM48.6738 13.064V10.064H45.6738V13.064H48.6738ZM48.2178 13.064V26H54.2178V13.064H48.2178ZM51.2178 23H49.1778V29H51.2178V23ZM52.1131 25.3799L51.7531 23.6759L45.8826 24.9161L46.2426 26.6201L52.1131 25.3799ZM48.8178 21.296H48.6978V27.296H48.8178V21.296ZM46.147 22.7169C46.0579 22.8609 45.9585 22.9524 45.7737 23.0328L48.166 28.5352C49.4531 27.9756 50.5057 27.0751 51.2486 25.8751L46.147 22.7169ZM45.8246 23.0112C45.4608 23.1615 45.0748 23.24 44.6418 23.24V29.24C45.8409 29.24 47.0069 29.0145 48.1151 28.5568L45.8246 23.0112ZM44.6418 23.24C43.5891 23.24 43.2765 22.9824 43.2166 22.9261L39.1071 27.2979C40.6472 28.7456 42.6546 29.24 44.6418 29.24V23.24ZM43.2166 22.9261C43.2163 22.9259 43.2068 22.9174 43.1897 22.8897C43.1716 22.8605 43.1402 22.8016 43.106 22.6996C43.0347 22.4873 42.9618 22.1189 42.9618 21.536H36.9618C36.9618 23.5926 37.4624 25.7518 39.1071 27.2979L43.2166 22.9261ZM42.9618 21.536V13.064H36.9618V21.536H42.9618ZM39.9618 16.064H42.5298V10.064H39.9618V16.064ZM39.5298 13.064V21.152H45.5298V13.064H39.5298ZM39.5298 21.152C39.5298 22.5213 39.8195 24.1084 40.9228 25.3737C42.0945 26.7174 43.6964 27.152 45.1458 27.152V21.152C44.9894 21.152 44.9851 21.1288 45.0725 21.1623C45.1183 21.1797 45.1815 21.21 45.2523 21.2587C45.3236 21.3078 45.3892 21.3664 45.4449 21.4303C45.5599 21.5621 45.5828 21.657 45.5741 21.6272C45.5627 21.588 45.5298 21.4437 45.5298 21.152H39.5298ZM45.1458 27.152C47.0264 27.152 49.1399 26.573 50.4177 24.6164L45.394 21.3356C45.4312 21.2788 45.4819 21.2209 45.5414 21.1721C45.5996 21.1243 45.6442 21.1031 45.6559 21.0981C45.6651 21.0942 45.6352 21.1082 45.55 21.1231C45.4641 21.1381 45.3324 21.152 45.1458 21.152V27.152ZM50.4177 24.6164C51.3794 23.1436 51.6738 21.3562 51.6738 19.616H45.6738C45.6738 20.7878 45.4562 21.2404 45.394 21.3356L50.4177 24.6164ZM51.6738 19.616V13.064H45.6738V19.616H51.6738ZM48.6738 16.064H51.2178V10.064H48.6738V16.064ZM64.295 14.408L62.0919 16.4442L62.0997 16.4526L62.1075 16.4609L64.295 14.408ZM65.759 20.072V23.072H68.759V20.072H65.759ZM57.071 20.072V17.072H53.9979L54.0719 20.1443L57.071 20.072ZM58.103 23.12L55.9082 25.1652L55.9205 25.1784L55.933 25.1914L58.103 23.12ZM63.119 23.96L63.7776 26.8868L63.8038 26.8809L63.8299 26.8746L63.119 23.96ZM65.135 23.264H68.135V18.6586L63.9225 20.5199L65.135 23.264ZM65.135 25.376L66.341 28.1229L68.135 27.3353V25.376H65.135ZM63.167 26.024L62.5238 23.0938L63.167 26.024ZM57.479 25.496L56.0836 28.1517L56.0928 28.1565L56.102 28.1613L57.479 25.496ZM55.247 23.288L52.5988 24.6975L52.6124 24.7232L52.6266 24.7486L55.247 23.288ZM55.175 15.944L52.4833 14.6195L52.4747 14.6368L52.4664 14.6542L55.175 15.944ZM57.215 13.64L58.7794 16.1998L58.7859 16.1958L58.7925 16.1918L57.215 13.64ZM58.079 15.68L55.8996 13.6184L55.8847 13.6342L55.87 13.6501L58.079 15.68ZM57.119 18.2L54.1306 17.9363L53.8427 21.2H57.119V18.2ZM63.215 18.2V21.2H66.263L66.2147 18.1524L63.215 18.2ZM62.471 15.752L60.0422 17.5129L60.0672 17.5474L60.0932 17.5811L62.471 15.752ZM60.287 15.824C61.31 15.824 61.786 16.1133 62.0919 16.4442L66.4982 12.3718C64.852 10.5907 62.656 9.824 60.287 9.824V15.824ZM62.1075 16.4609C62.4323 16.807 62.759 17.4221 62.759 18.68H68.759C68.759 16.3219 68.1098 14.0889 66.4826 12.3551L62.1075 16.4609ZM62.759 18.68V20.072H68.759V18.68H62.759ZM65.759 17.072H57.071V23.072H65.759V17.072ZM54.0719 20.1443C54.1148 21.9262 54.5891 23.7495 55.9082 25.1652L60.2979 21.0748C60.2914 21.0679 60.2459 21.0196 60.1946 20.8679C60.1397 20.7057 60.0805 20.43 60.0702 19.9997L54.0719 20.1443ZM55.933 25.1914C57.2981 26.6215 59.0954 27.176 60.911 27.176V21.176C60.6015 21.176 60.4354 21.1305 60.365 21.104C60.307 21.0822 60.2891 21.0653 60.2731 21.0486L55.933 25.1914ZM60.911 27.176C61.9086 27.176 62.8729 27.0904 63.7776 26.8868L62.4605 21.0332C62.0852 21.1176 61.5775 21.176 60.911 21.176V27.176ZM63.8299 26.8746C64.6759 26.6682 65.5157 26.3756 66.3475 26.0081L63.9225 20.5199C63.3784 20.7604 62.8741 20.9318 62.4082 21.0454L63.8299 26.8746ZM62.135 23.264V25.376H68.135V23.264H62.135ZM63.9291 22.6291C63.4422 22.8428 62.9743 22.9949 62.5238 23.0938L63.8103 28.9542C64.6718 28.7651 65.5159 28.4852 66.341 28.1229L63.9291 22.6291ZM62.5238 23.0938C62.1389 23.1783 61.582 23.24 60.815 23.24V29.24C61.8721 29.24 62.8832 29.1577 63.8103 28.9542L62.5238 23.0938ZM60.815 23.24C59.9489 23.24 59.3236 23.0723 58.8561 22.8307L56.102 28.1613C57.5545 28.9117 59.1532 29.24 60.815 29.24V23.24ZM58.8744 22.8403C58.4715 22.6286 58.1421 22.3202 57.8675 21.8274L52.6266 24.7486C53.4399 26.2078 54.5985 27.3714 56.0836 28.1517L58.8744 22.8403ZM57.8953 21.8785C57.6542 21.4255 57.455 20.7231 57.455 19.64H51.455C51.455 21.4369 51.7839 23.1665 52.5988 24.6975L57.8953 21.8785ZM57.455 19.64C57.455 18.4999 57.6446 17.7358 57.8836 17.2338L52.4664 14.6542C51.7455 16.1682 51.455 17.8681 51.455 19.64H57.455ZM57.8668 17.2685C58.1401 16.7131 58.4528 16.3994 58.7794 16.1998L55.6507 11.0802C54.2492 11.9366 53.202 13.1589 52.4833 14.6195L57.8668 17.2685ZM58.7925 16.1918C59.1395 15.9773 59.6025 15.824 60.287 15.824V9.824C58.6355 9.824 57.0506 10.2147 55.6376 11.0882L58.7925 16.1918ZM60.287 11.792C58.6588 11.792 57.0967 12.353 55.8996 13.6184L60.2584 17.7416C60.2585 17.7415 60.2558 17.7444 60.2503 17.7491C60.2447 17.7539 60.2371 17.7598 60.2277 17.7663C60.2076 17.7801 60.1872 17.7906 60.1704 17.7973C60.1542 17.8039 60.1509 17.803 60.1664 17.8002C60.1826 17.7973 60.2212 17.792 60.287 17.792V11.792ZM55.87 13.6501C54.7425 14.8772 54.2641 16.4234 54.1306 17.9363L60.1074 18.4637C60.1659 17.8006 60.3276 17.6668 60.288 17.7099L55.87 13.6501ZM57.119 21.2H63.215V15.2H57.119V21.2ZM66.2147 18.1524C66.1913 16.6813 65.8206 15.186 64.8489 13.9229L60.0932 17.5811C60.095 17.5835 60.119 17.6134 60.1467 17.7044C60.1762 17.8014 60.2111 17.9739 60.2154 18.2476L66.2147 18.1524ZM64.8999 13.9911C63.7284 12.3753 61.9673 11.792 60.287 11.792V17.792C60.4671 17.792 60.4681 17.8216 60.3698 17.7784C60.3194 17.7562 60.2565 17.7206 60.1918 17.6685C60.127 17.6163 60.0771 17.561 60.0422 17.5129L64.8999 13.9911ZM76.0374 12.872L75.6653 15.8488L75.763 15.861L75.8612 15.8668L76.0374 12.872ZM76.7334 12.944L79.7151 13.2753L80.0288 10.4518L77.2266 9.98482L76.7334 12.944ZM76.4694 15.32L75.6895 18.2168L79.065 19.1256L79.4511 15.6513L76.4694 15.32ZM73.3494 15.632L71.8925 13.0095L71.8767 13.0183L71.861 13.0273L73.3494 15.632ZM71.9814 17.024L69.3851 15.5209L69.3787 15.532L69.3723 15.5432L71.9814 17.024ZM71.4774 26V29H74.4774V26H71.4774ZM68.9334 26H65.9334V29H68.9334V26ZM68.9334 13.064V10.064H65.9334V13.064H68.9334ZM70.9494 13.064L73.918 12.6311L73.5436 10.064H70.9494V13.064ZM71.2854 15.368L68.3168 15.8009L68.6912 18.368H71.2854V15.368ZM71.3814 15.368V18.368H73.0732L73.9486 16.9203L71.3814 15.368ZM72.9894 13.592L74.7987 15.985L74.8171 15.9711L74.8352 15.9569L72.9894 13.592ZM75.3174 15.824C75.4 15.824 75.5147 15.83 75.6653 15.8488L76.4095 9.89516C76.0481 9.85 75.6828 9.824 75.3174 9.824V15.824ZM75.8612 15.8668C76.0654 15.8788 76.1853 15.894 76.2402 15.9032L77.2266 9.98482C76.8975 9.92997 76.5534 9.89717 76.2136 9.87718L75.8612 15.8668ZM73.7518 12.6127L73.4878 14.9887L79.4511 15.6513L79.7151 13.2753L73.7518 12.6127ZM77.2493 12.4232C76.569 12.24 75.8742 12.152 75.1734 12.152V18.152C75.3686 18.152 75.5378 18.176 75.6895 18.2168L77.2493 12.4232ZM75.1734 12.152C74.0081 12.152 72.9004 12.4496 71.8925 13.0095L74.8063 18.2545C74.9504 18.1744 75.0587 18.152 75.1734 18.152V12.152ZM71.861 13.0273C70.8003 13.6334 69.9782 14.4965 69.3851 15.5209L74.5777 18.5271C74.6886 18.3355 74.7785 18.2706 74.8378 18.2367L71.861 13.0273ZM69.3723 15.5432C68.7244 16.6849 68.4774 17.9429 68.4774 19.184H74.4774C74.4774 18.7291 74.5665 18.5471 74.5905 18.5048L69.3723 15.5432ZM68.4774 19.184V26H74.4774V19.184H68.4774ZM71.4774 23H68.9334V29H71.4774V23ZM71.9334 26V13.064H65.9334V26H71.9334ZM68.9334 16.064H70.9494V10.064H68.9334V16.064ZM67.9808 13.4969L68.3168 15.8009L74.254 14.9351L73.918 12.6311L67.9808 13.4969ZM71.2854 18.368H71.3814V12.368H71.2854V18.368ZM73.9486 16.9203C74.1631 16.5656 74.4393 16.2567 74.7987 15.985L71.1801 11.199C70.2275 11.9193 69.4318 12.7944 68.8142 13.8157L73.9486 16.9203ZM74.8352 15.9569C74.9223 15.8889 75.0355 15.824 75.3174 15.824V9.824C73.8073 9.824 72.3685 10.2711 71.1436 11.2271L74.8352 15.9569ZM77.1607 13.064V10.064H72.7266L74.376 14.18L77.1607 13.064ZM79.8967 13.064L82.7139 12.0329L81.9933 10.064H79.8967V13.064ZM82.5847 20.408L79.7675 21.4391L79.77 21.4459L79.7724 21.4526L82.5847 20.408ZM83.1127 22.04L80.2184 22.8294L80.2329 22.8824L80.2493 22.9348L83.1127 22.04ZM83.4727 23.552L80.511 24.0297L80.9178 26.552H83.4727V23.552ZM83.5687 23.552V26.552H86.0468L86.5147 24.1185L83.5687 23.552ZM83.9287 22.088L81.0667 21.1885L81.0549 21.226L81.0441 21.2638L83.9287 22.088ZM84.5047 20.384L87.3264 21.4029L87.3325 21.3859L87.3385 21.3688L84.5047 20.384ZM87.0487 13.064V10.064H84.9153L84.215 12.0792L87.0487 13.064ZM89.7847 13.064L92.5914 14.1234L94.1237 10.064H89.7847V13.064ZM84.2407 27.752L81.434 26.6926L81.4314 26.6996L81.4288 26.7065L84.2407 27.752ZM82.3687 30.68L80.3643 28.4479L80.3404 28.4694L80.3169 28.4914L82.3687 30.68ZM78.3127 31.688L78.8059 28.7288L78.7253 28.7154L78.644 28.7063L78.3127 31.688ZM77.5687 31.568H74.5687V33.9545L76.8941 34.4912L77.5687 31.568ZM77.5687 29.552L78.1571 26.6103L74.5687 25.8926V29.552H77.5687ZM78.1927 29.648L78.5648 26.6712L78.5648 26.6712L78.1927 29.648ZM80.7607 29.048L78.7194 26.8496L78.6987 26.8689L78.6783 26.8885L80.7607 29.048ZM81.8167 27.392L79.0117 26.328L79.0084 26.3369L79.0051 26.3458L81.8167 27.392ZM82.3447 26L85.1497 27.064L85.5646 25.9701L85.1294 24.884L82.3447 26ZM77.1607 16.064H79.8967V10.064H77.1607V16.064ZM77.0795 14.0951L79.7675 21.4391L85.4019 19.3769L82.7139 12.0329L77.0795 14.0951ZM79.7724 21.4526C79.9521 21.9363 80.1 22.395 80.2184 22.8294L86.007 21.2506C85.8375 20.629 85.6333 19.9997 85.397 19.3634L79.7724 21.4526ZM80.2493 22.9348C80.3695 23.3194 80.4552 23.684 80.511 24.0297L86.4344 23.0743C86.3302 22.428 86.176 21.7846 85.9762 21.1452L80.2493 22.9348ZM83.4727 26.552H83.5687V20.552H83.4727V26.552ZM86.5147 24.1185C86.5732 23.8145 86.6693 23.4162 86.8133 22.9122L81.0441 21.2638C80.8682 21.8798 80.7242 22.4575 80.6227 22.9855L86.5147 24.1185ZM86.7907 22.9875C86.9536 22.4693 87.132 21.9411 87.3264 21.4029L81.6831 19.3651C81.4614 19.9789 81.2559 20.5867 81.0667 21.1885L86.7907 22.9875ZM87.3385 21.3688L89.8825 14.0488L84.215 12.0792L81.671 19.3992L87.3385 21.3688ZM87.0487 16.064H89.7847V10.064H87.0487V16.064ZM86.978 12.0046L81.434 26.6926L87.0474 28.8114L92.5914 14.1234L86.978 12.0046ZM81.4288 26.7065C81.0904 27.6167 80.7043 28.1426 80.3643 28.4479L84.3731 32.9121C85.6011 31.8094 86.463 30.3833 87.0527 28.7975L81.4288 26.7065ZM80.3169 28.4914C80.2057 28.5956 79.981 28.76 79.3447 28.76V34.76C81.2045 34.76 82.9957 34.2044 84.4205 32.8686L80.3169 28.4914ZM79.3447 28.76C79.0541 28.76 78.8838 28.7418 78.8059 28.7288L77.8195 34.6472C78.3177 34.7302 78.8354 34.76 79.3447 34.76V28.76ZM78.644 28.7063C78.4337 28.683 78.3063 28.6594 78.2433 28.6448L76.8941 34.4912C77.2471 34.5726 77.6157 34.629 77.9814 34.6697L78.644 28.7063ZM80.5687 31.568V29.552H74.5687V31.568H80.5687ZM76.9804 32.4937C77.2407 32.5458 77.5285 32.5883 77.8206 32.6248L78.5648 26.6712C78.345 26.6437 78.2168 26.6222 78.1571 26.6103L76.9804 32.4937ZM77.8206 32.6248C78.2065 32.6731 78.595 32.696 78.9847 32.696V26.696C78.8304 26.696 78.6909 26.6869 78.5648 26.6712L77.8206 32.6248ZM78.9847 32.696C80.3458 32.696 81.7356 32.2755 82.8431 31.2075L78.6783 26.8885C78.7597 26.81 78.86 26.7495 78.9524 26.7157C79.0361 26.6852 79.0597 26.696 78.9847 26.696V32.696ZM82.8021 31.2464C83.6555 30.4539 84.2415 29.4779 84.6284 28.4382L79.0051 26.3458C78.8799 26.6821 78.7619 26.8101 78.7194 26.8496L82.8021 31.2464ZM84.6217 28.456L85.1497 27.064L79.5397 24.936L79.0117 26.328L84.6217 28.456ZM85.1294 24.884L79.9454 11.948L74.376 14.18L79.56 27.116L85.1294 24.884Z" fill="white"/>
</svg>
