<svg width="200" height="200" viewBox="0 0 200 200" fill="none" xmlns="http://www.w3.org/2000/svg">
<circle cx="62.4558" cy="101.882" r="3" transform="rotate(-45 62.4558 101.882)" fill="#60BA8D"/>
<circle cx="69.5269" cy="94.8112" r="3" transform="rotate(-45 69.5269 94.8112)" fill="#60BA8D"/>
<circle cx="76.598" cy="87.7401" r="3" transform="rotate(-45 76.598 87.7401)" fill="#60BA8D"/>
<circle cx="83.669" cy="80.6691" r="3" transform="rotate(-45 83.669 80.6691)" fill="#60BA8D"/>
<circle cx="83.669" cy="80.669" r="3" transform="rotate(-45 83.669 80.669)" fill="#60BA8D"/>
<circle cx="90.7401" cy="73.598" r="3" transform="rotate(-45 90.7401 73.598)" fill="#60BA8D"/>
<circle cx="97.8112" cy="66.5269" r="3" transform="rotate(-45 97.8112 66.5269)" fill="#60BA8D"/>
<circle cx="104.882" cy="59.4558" r="3" transform="rotate(-45 104.882 59.4558)" fill="#60BA8D"/>
<circle cx="41.2426" cy="94.8112" r="3" transform="rotate(-45 41.2426 94.8112)" fill="#60BA8D"/>
<circle cx="48.3137" cy="87.7401" r="3" transform="rotate(-45 48.3137 87.7401)" fill="#60BA8D"/>
<circle cx="55.3848" cy="80.669" r="3" transform="rotate(-45 55.3848 80.669)" fill="#60BA8D"/>
<circle cx="62.4558" cy="73.598" r="3" transform="rotate(-45 62.4558 73.598)" fill="#60BA8D"/>
<circle cx="69.5269" cy="66.5269" r="3" transform="rotate(-45 69.5269 66.5269)" fill="#60BA8D"/>
<circle cx="69.5269" cy="66.5269" r="3" transform="rotate(-45 69.5269 66.5269)" fill="#60BA8D"/>
<circle cx="76.5979" cy="59.4558" r="3" transform="rotate(-45 76.5979 59.4558)" fill="#60BA8D"/>
<circle cx="76.598" cy="101.882" r="3" transform="rotate(-45 76.598 101.882)" fill="#60BA8D"/>
<circle cx="83.669" cy="94.8112" r="3" transform="rotate(-45 83.669 94.8112)" fill="#60BA8D"/>
<circle cx="90.7401" cy="87.7401" r="3" transform="rotate(-45 90.7401 87.7401)" fill="#60BA8D"/>
<circle cx="90.7401" cy="87.7401" r="3" transform="rotate(-45 90.7401 87.7401)" fill="#60BA8D"/>
<circle cx="97.8112" cy="80.669" r="3" transform="rotate(-45 97.8112 80.669)" fill="#60BA8D"/>
<circle cx="104.882" cy="73.598" r="3" transform="rotate(-45 104.882 73.598)" fill="#60BA8D"/>
<circle cx="111.953" cy="66.5269" r="3" transform="rotate(-45 111.953 66.5269)" fill="#60BA8D"/>
<circle cx="119.024" cy="59.4558" r="3" transform="rotate(-45 119.024 59.4558)" fill="#60BA8D"/>
<circle cx="48.3137" cy="101.882" r="3" transform="rotate(-45 48.3137 101.882)" fill="#60BA8D"/>
<circle cx="55.3847" cy="94.8112" r="3" transform="rotate(-45 55.3847 94.8112)" fill="#60BA8D"/>
<circle cx="62.4558" cy="87.7401" r="3" transform="rotate(-45 62.4558 87.7401)" fill="#60BA8D"/>
<circle cx="69.5269" cy="80.6691" r="3" transform="rotate(-45 69.5269 80.6691)" fill="#60BA8D"/>
<circle cx="76.5979" cy="73.598" r="3" transform="rotate(-45 76.5979 73.598)" fill="#60BA8D"/>
<circle cx="76.598" cy="73.598" r="3" transform="rotate(-45 76.598 73.598)" fill="#60BA8D"/>
<circle cx="83.669" cy="66.5269" r="3" transform="rotate(-45 83.669 66.5269)" fill="#60BA8D"/>
<circle cx="90.7401" cy="59.4558" r="3" transform="rotate(-45 90.7401 59.4558)" fill="#60BA8D"/>
<circle cx="90.7401" cy="101.882" r="3" transform="rotate(-45 90.7401 101.882)" fill="#60BA8D"/>
<circle cx="97.8112" cy="94.8112" r="3" transform="rotate(-45 97.8112 94.8112)" fill="#60BA8D"/>
<circle cx="97.8112" cy="94.8112" r="3" transform="rotate(-45 97.8112 94.8112)" fill="#60BA8D"/>
<circle cx="104.882" cy="87.7401" r="3" transform="rotate(-45 104.882 87.7401)" fill="#60BA8D"/>
<circle cx="111.953" cy="80.669" r="3" transform="rotate(-45 111.953 80.669)" fill="#60BA8D"/>
<circle cx="119.024" cy="73.598" r="3" transform="rotate(-45 119.024 73.598)" fill="#60BA8D"/>
<circle cx="126.095" cy="66.5269" r="3" transform="rotate(-45 126.095 66.5269)" fill="#60BA8D"/>
<circle cx="62.4558" cy="101.882" r="3" transform="rotate(-45 62.4558 101.882)" fill="#60BA8D"/>
<circle cx="69.5269" cy="94.8112" r="3" transform="rotate(-45 69.5269 94.8112)" fill="#60BA8D"/>
<circle cx="76.598" cy="87.7401" r="3" transform="rotate(-45 76.598 87.7401)" fill="#60BA8D"/>
<circle cx="83.669" cy="80.6691" r="3" transform="rotate(-45 83.669 80.6691)" fill="#60BA8D"/>
<circle cx="83.669" cy="80.669" r="3" transform="rotate(-45 83.669 80.669)" fill="#60BA8D"/>
<circle cx="90.7401" cy="73.598" r="3" transform="rotate(-45 90.7401 73.598)" fill="#60BA8D"/>
<circle cx="97.8112" cy="66.5269" r="3" transform="rotate(-45 97.8112 66.5269)" fill="#60BA8D"/>
<circle cx="104.882" cy="59.4558" r="3" transform="rotate(-45 104.882 59.4558)" fill="#60BA8D"/>
<circle cx="125" cy="86" r="39" fill="#F5E6B3"/>
<path d="M133.05 103.85L130.85 96.2H118.5L116.3 103.85H107L119.15 68H130.05L142.35 103.85H133.05ZM128.95 89.1L126.85 81.95C126.683 81.35 126.45 80.55 126.15 79.55C125.883 78.5167 125.6 77.4667 125.3 76.4C125.033 75.3333 124.817 74.4333 124.65 73.7C124.517 74.4333 124.3 75.35 124 76.45C123.733 77.5167 123.467 78.5667 123.2 79.6C122.933 80.6 122.717 81.3833 122.55 81.95L120.45 89.1H128.95Z" fill="#112730"/>
<circle cx="72.5" cy="130.5" r="33" fill="white" stroke="#112730" stroke-width="5"/>
<path d="M60.3787 113H72.0787C77.0454 113 80.6954 113.717 83.0287 115.15C85.3621 116.583 86.5287 118.867 86.5287 122C86.5287 124.167 85.9787 125.933 84.8787 127.3C83.8121 128.633 82.5121 129.45 80.9787 129.75V130C82.0454 130.233 83.0621 130.65 84.0287 131.25C84.9954 131.817 85.7787 132.667 86.3787 133.8C87.0121 134.933 87.3287 136.433 87.3287 138.3C87.3287 141.567 86.1287 144.117 83.7287 145.95C81.3621 147.783 78.1121 148.7 73.9787 148.7H60.3787V113ZM68.8787 126.95H72.6287C74.5287 126.95 75.8621 126.617 76.6287 125.95C77.3954 125.25 77.7787 124.317 77.7787 123.15C77.7787 120.85 75.9454 119.7 72.2787 119.7H68.8787V126.95ZM68.8787 133.45V141.9H73.1287C75.1287 141.9 76.5121 141.5 77.2787 140.7C78.0787 139.9 78.4787 138.85 78.4787 137.55C78.4787 136.383 78.0787 135.417 77.2787 134.65C76.4787 133.85 75.0287 133.45 72.9287 133.45H68.8787Z" fill="#112730"/>
<path d="M143 116C139.134 116 136 119.134 136 123C136 126.866 139.134 130 143 130C146.866 130 150 126.866 150 123C150 119.134 146.866 116 143 116ZM146.023 120.714L142.733 125.277C142.687 125.341 142.626 125.393 142.556 125.429C142.486 125.465 142.408 125.484 142.329 125.484C142.25 125.484 142.172 125.465 142.102 125.429C142.032 125.393 141.971 125.341 141.925 125.277L139.977 122.577C139.917 122.494 139.977 122.378 140.078 122.378H140.811C140.97 122.378 141.122 122.455 141.216 122.586L142.328 124.13L144.784 120.723C144.878 120.594 145.028 120.516 145.189 120.516H145.922C146.023 120.516 146.083 120.631 146.023 120.714V120.714Z" fill="#60BA8D"/>
<path d="M143 139C139.134 139 136 142.134 136 146C136 149.866 139.134 153 143 153C146.866 153 150 149.866 150 146C150 142.134 146.866 139 143 139ZM146.023 143.714L142.733 148.277C142.687 148.341 142.626 148.393 142.556 148.429C142.486 148.465 142.408 148.484 142.329 148.484C142.25 148.484 142.172 148.465 142.102 148.429C142.032 148.393 141.971 148.341 141.925 148.277L139.977 145.577C139.917 145.494 139.977 145.378 140.078 145.378H140.811C140.97 145.378 141.122 145.455 141.216 145.586L142.328 147.13L144.784 143.723C144.878 143.594 145.028 143.516 145.189 143.516H145.922C146.023 143.516 146.083 143.631 146.023 143.714V143.714Z" fill="#60BA8D"/>
</svg>
