<svg width="200" height="200" viewBox="0 0 200 200" fill="none" xmlns="http://www.w3.org/2000/svg">
<line x1="130.374" y1="157.86" x2="119.768" y2="168.467" stroke="#F4F4F4" stroke-width="5"/>
<line x1="126.921" y1="158.232" x2="136.921" y2="168.232" stroke="#F4F4F4" stroke-width="5"/>
<line x1="153.527" y1="157.86" x2="142.921" y2="168.467" stroke="#F4F4F4" stroke-width="5"/>
<line x1="150.073" y1="158.232" x2="160.073" y2="168.232" stroke="#F4F4F4" stroke-width="5"/>
<line x1="130.374" y1="136.768" x2="119.768" y2="147.374" stroke="#F4F4F4" stroke-width="5"/>
<line x1="126.921" y1="137.14" x2="136.921" y2="147.14" stroke="#F4F4F4" stroke-width="5"/>
<line x1="153.527" y1="136.768" x2="142.921" y2="147.374" stroke="#F4F4F4" stroke-width="5"/>
<line x1="150.073" y1="137.14" x2="160.073" y2="147.14" stroke="#F4F4F4" stroke-width="5"/>
<line x1="130.374" y1="115.768" x2="119.768" y2="126.374" stroke="#F4F4F4" stroke-width="5"/>
<line x1="126.921" y1="116.14" x2="136.921" y2="126.14" stroke="#F4F4F4" stroke-width="5"/>
<line x1="153.527" y1="115.768" x2="142.921" y2="126.374" stroke="#F4F4F4" stroke-width="5"/>
<line x1="150.073" y1="116.14" x2="160.073" y2="126.14" stroke="#F4F4F4" stroke-width="5"/>
<circle cx="50.4558" cy="90.8823" r="3" transform="rotate(-45 50.4558 90.8823)" fill="#60BA8D"/>
<circle cx="57.5269" cy="83.8112" r="3" transform="rotate(-45 57.5269 83.8112)" fill="#60BA8D"/>
<circle cx="64.598" cy="76.7401" r="3" transform="rotate(-45 64.598 76.7401)" fill="#60BA8D"/>
<circle cx="71.669" cy="69.6691" r="3" transform="rotate(-45 71.669 69.6691)" fill="#60BA8D"/>
<circle cx="71.669" cy="69.669" r="3" transform="rotate(-45 71.669 69.669)" fill="#60BA8D"/>
<circle cx="78.7401" cy="62.598" r="3" transform="rotate(-45 78.7401 62.598)" fill="#60BA8D"/>
<circle cx="85.8111" cy="55.5269" r="3" transform="rotate(-45 85.8111 55.5269)" fill="#60BA8D"/>
<circle cx="92.8822" cy="48.4558" r="3" transform="rotate(-45 92.8822 48.4558)" fill="#60BA8D"/>
<circle cx="29.2426" cy="83.8112" r="3" transform="rotate(-45 29.2426 83.8112)" fill="#60BA8D"/>
<circle cx="36.3137" cy="76.7401" r="3" transform="rotate(-45 36.3137 76.7401)" fill="#60BA8D"/>
<circle cx="43.3848" cy="69.669" r="3" transform="rotate(-45 43.3848 69.669)" fill="#60BA8D"/>
<circle cx="50.4558" cy="62.598" r="3" transform="rotate(-45 50.4558 62.598)" fill="#60BA8D"/>
<circle cx="57.5269" cy="55.5269" r="3" transform="rotate(-45 57.5269 55.5269)" fill="#60BA8D"/>
<circle cx="57.5269" cy="55.5269" r="3" transform="rotate(-45 57.5269 55.5269)" fill="#60BA8D"/>
<circle cx="64.598" cy="48.4558" r="3" transform="rotate(-45 64.598 48.4558)" fill="#60BA8D"/>
<circle cx="64.598" cy="90.8823" r="3" transform="rotate(-45 64.598 90.8823)" fill="#60BA8D"/>
<circle cx="71.6691" cy="83.8112" r="3" transform="rotate(-45 71.6691 83.8112)" fill="#60BA8D"/>
<circle cx="78.7401" cy="76.7401" r="3" transform="rotate(-45 78.7401 76.7401)" fill="#60BA8D"/>
<circle cx="78.7401" cy="76.7401" r="3" transform="rotate(-45 78.7401 76.7401)" fill="#60BA8D"/>
<circle cx="85.8112" cy="69.669" r="3" transform="rotate(-45 85.8112 69.669)" fill="#60BA8D"/>
<circle cx="92.8822" cy="62.598" r="3" transform="rotate(-45 92.8822 62.598)" fill="#60BA8D"/>
<circle cx="99.9533" cy="55.5269" r="3" transform="rotate(-45 99.9533 55.5269)" fill="#60BA8D"/>
<circle cx="107.024" cy="48.4558" r="3" transform="rotate(-45 107.024 48.4558)" fill="#60BA8D"/>
<circle cx="36.3137" cy="90.8823" r="3" transform="rotate(-45 36.3137 90.8823)" fill="#60BA8D"/>
<circle cx="43.3848" cy="83.8112" r="3" transform="rotate(-45 43.3848 83.8112)" fill="#60BA8D"/>
<circle cx="50.4558" cy="76.7401" r="3" transform="rotate(-45 50.4558 76.7401)" fill="#60BA8D"/>
<circle cx="57.5269" cy="69.6691" r="3" transform="rotate(-45 57.5269 69.6691)" fill="#60BA8D"/>
<circle cx="64.598" cy="62.598" r="3" transform="rotate(-45 64.598 62.598)" fill="#60BA8D"/>
<circle cx="64.598" cy="62.598" r="3" transform="rotate(-45 64.598 62.598)" fill="#60BA8D"/>
<circle cx="71.6691" cy="55.5269" r="3" transform="rotate(-45 71.6691 55.5269)" fill="#60BA8D"/>
<circle cx="78.7401" cy="48.4558" r="3" transform="rotate(-45 78.7401 48.4558)" fill="#60BA8D"/>
<circle cx="78.7401" cy="90.8822" r="3" transform="rotate(-45 78.7401 90.8822)" fill="#60BA8D"/>
<circle cx="85.8112" cy="83.8112" r="3" transform="rotate(-45 85.8112 83.8112)" fill="#60BA8D"/>
<circle cx="85.8112" cy="83.8112" r="3" transform="rotate(-45 85.8112 83.8112)" fill="#60BA8D"/>
<circle cx="92.8823" cy="76.7401" r="3" transform="rotate(-45 92.8823 76.7401)" fill="#60BA8D"/>
<circle cx="99.9533" cy="69.669" r="3" transform="rotate(-45 99.9533 69.669)" fill="#60BA8D"/>
<circle cx="107.024" cy="62.598" r="3" transform="rotate(-45 107.024 62.598)" fill="#60BA8D"/>
<circle cx="114.095" cy="55.5269" r="3" transform="rotate(-45 114.095 55.5269)" fill="#60BA8D"/>
<circle cx="50.4558" cy="90.8823" r="3" transform="rotate(-45 50.4558 90.8823)" fill="#60BA8D"/>
<circle cx="57.5269" cy="83.8112" r="3" transform="rotate(-45 57.5269 83.8112)" fill="#60BA8D"/>
<circle cx="64.598" cy="76.7401" r="3" transform="rotate(-45 64.598 76.7401)" fill="#60BA8D"/>
<circle cx="71.669" cy="69.6691" r="3" transform="rotate(-45 71.669 69.6691)" fill="#60BA8D"/>
<circle cx="71.669" cy="69.669" r="3" transform="rotate(-45 71.669 69.669)" fill="#60BA8D"/>
<circle cx="78.7401" cy="62.598" r="3" transform="rotate(-45 78.7401 62.598)" fill="#60BA8D"/>
<circle cx="85.8111" cy="55.5269" r="3" transform="rotate(-45 85.8111 55.5269)" fill="#60BA8D"/>
<circle cx="92.8822" cy="48.4558" r="3" transform="rotate(-45 92.8822 48.4558)" fill="#60BA8D"/>
<rect x="130" y="69" width="15" height="15" fill="#F5E6B3"/>
<rect x="151" y="69" width="15" height="15" fill="#F5E6B3"/>
<rect x="130" y="48" width="15" height="15" fill="#F5E6B3"/>
<path d="M75 109L75 124L60 109L75 109Z" fill="#60BA8D"/>
<path d="M60 124V109L75 124H60Z" fill="#F5E6B3"/>
<path d="M75 145L60 145L75 130L75 145Z" fill="#60BA8D"/>
<path d="M60 130L75 130L60 145L60 130Z" fill="#112730"/>
<path d="M54 145L39 145L54 130L54 145Z" fill="#F5E6B3"/>
<g filter="url(#filter0_d)">
<path d="M84.0824 121.4V115.55C84.0824 110.85 85.0824 106.8 87.0824 103.4C89.0824 100 92.6324 96.55 97.7324 93.05C102.432 89.85 105.582 87.2 107.182 85.1C108.882 82.9 109.732 80.45 109.732 77.75C109.732 75.15 108.632 73.15 106.432 71.75C104.332 70.25 101.482 69.5 97.8824 69.5C93.8824 69.5 89.7824 70.15 85.5824 71.45C81.3824 72.75 77.0324 74.6 72.5324 77L63.5324 59.15C68.6324 56.25 74.1824 53.9 80.1824 52.1C86.1824 50.3 92.6824 49.4 99.6824 49.4C110.482 49.4 118.832 51.9 124.732 56.9C130.632 61.8 133.582 68.15 133.582 75.95C133.582 81.95 132.132 87 129.232 91.1C126.432 95.1 122.032 99.2 116.032 103.4C111.632 106.4 108.682 108.8 107.182 110.6C105.682 112.4 104.932 114.65 104.932 117.35V121.4H84.0824ZM81.3824 146.75C81.3824 141.85 82.7324 138.45 85.4324 136.55C88.2324 134.55 91.5824 133.55 95.4824 133.55C99.1824 133.55 102.382 134.55 105.082 136.55C107.882 138.45 109.282 141.85 109.282 146.75C109.282 151.45 107.882 154.85 105.082 156.95C102.382 158.95 99.1824 159.95 95.4824 159.95C91.5824 159.95 88.2324 158.95 85.4324 156.95C82.7324 154.85 81.3824 151.45 81.3824 146.75Z" fill="#112730"/>
</g>
<defs>
<filter id="filter0_d" x="63.5324" y="49.4" width="74.05" height="114.55" filterUnits="userSpaceOnUse" color-interpolation-filters="sRGB">
<feFlood flood-opacity="0" result="BackgroundImageFix"/>
<feColorMatrix in="SourceAlpha" type="matrix" values="0 0 0 0 0 0 0 0 0 0 0 0 0 0 0 0 0 0 127 0"/>
<feOffset dx="4" dy="4"/>
<feColorMatrix type="matrix" values="0 0 0 0 0.0666667 0 0 0 0 0.152941 0 0 0 0 0.188235 0 0 0 0.5 0"/>
<feBlend mode="normal" in2="BackgroundImageFix" result="effect1_dropShadow"/>
<feBlend mode="normal" in="SourceGraphic" in2="effect1_dropShadow" result="shape"/>
</filter>
</defs>
</svg>
