<svg width="47" height="57" viewBox="0 0 47 57" fill="none" xmlns="http://www.w3.org/2000/svg">
<path fill-rule="evenodd" clip-rule="evenodd" d="M14.7411 3.5625C14.0354 3.5625 13.3586 3.844 12.8596 4.34507C12.3606 4.84615 12.0803 5.52575 12.0803 6.23438V32.0625C12.0803 32.5349 11.8934 32.988 11.5608 33.322C11.2281 33.6561 10.7769 33.8438 10.3065 33.8438C9.83601 33.8438 9.38482 33.6561 9.05216 33.322C8.7195 32.988 8.53261 32.5349 8.53261 32.0625V28.8919L4.97427 29.6044C4.53863 29.6917 4.15148 29.94 3.88937 30.3002C3.62726 30.6604 3.50928 31.1062 3.55874 31.5495L4.7827 42.6111C4.87714 43.4597 5.17276 44.2733 5.64479 44.9837L10.7286 52.6431C10.8905 52.8873 11.1099 53.0876 11.3673 53.2262C11.6248 53.3648 11.9124 53.4373 12.2045 53.4375H34.8565C35.1692 53.4374 35.4763 53.3543 35.7466 53.1967C36.017 53.039 36.2411 52.8124 36.3962 52.5398L41.3452 43.8401C41.9625 42.7555 42.3457 41.5527 42.4699 40.3097L43.4348 30.6375C43.4844 30.1421 43.43 29.6418 43.2752 29.1688C43.1204 28.6958 42.8686 28.2607 42.5359 27.8914C42.2033 27.5222 41.7974 27.2271 41.3442 27.0251C40.891 26.8231 40.4007 26.7187 39.9049 26.7188H38.688V30.2812C38.688 30.7537 38.5011 31.2067 38.1685 31.5408C37.8358 31.8748 37.3846 32.0625 36.9142 32.0625C36.4437 32.0625 35.9925 31.8748 35.6599 31.5408C35.3272 31.2067 35.1403 30.7537 35.1403 30.2812V25.4861C34.9159 25.1682 34.6792 24.8592 34.4308 24.5599C33.7674 23.769 33.1252 23.1954 32.7066 23.028C32.2667 22.8499 31.3159 22.8036 30.1948 22.8891C30.0694 22.8996 29.944 22.9114 29.8188 22.9247V28.5C29.8188 28.9724 29.6319 29.4255 29.2992 29.7595C28.9666 30.0936 28.5154 30.2812 28.0449 30.2812C27.5745 30.2812 27.1233 30.0936 26.7906 29.7595C26.458 29.4255 26.2711 28.9724 26.2711 28.5V21.3251C26.2711 20.7302 26.0121 20.3561 25.7389 20.2065C25.2436 19.9135 24.7081 19.695 24.1496 19.5581C23.5145 19.4334 22.3757 19.4156 21.2546 19.4619L20.9495 19.4762V28.5C20.9495 28.9724 20.7627 29.4255 20.43 29.7595C20.0973 30.0936 19.6461 30.2812 19.1757 30.2812C18.7052 30.2812 18.2541 30.0936 17.9214 29.7595C17.5887 29.4255 17.4018 28.9724 17.4018 28.5V6.23438C17.4018 5.52575 17.1215 4.84615 16.6225 4.34507C16.1235 3.844 15.4468 3.5625 14.7411 3.5625V3.5625ZM20.9495 15.9101V6.23438C20.9495 4.58092 20.2954 2.99518 19.1311 1.82601C17.9668 0.656834 16.3877 0 14.7411 0C13.0945 0 11.5153 0.656834 10.351 1.82601C9.18672 2.99518 8.53261 4.58092 8.53261 6.23438V25.2581L4.27893 26.1131C2.97335 26.3751 1.81298 27.1189 1.02682 28.1979C0.240657 29.2769 -0.11418 30.6126 0.0323353 31.9414L1.25629 43.0065C1.41369 44.421 1.90639 45.777 2.69311 46.9609L7.77695 54.6202C8.26287 55.3522 8.92122 55.9524 9.69359 56.3676C10.466 56.7827 11.3284 56.9999 12.2045 57H34.8565C35.7945 56.9997 36.7158 56.7504 37.5269 56.2775C38.3381 55.8045 39.0104 55.1246 39.4756 54.3068L44.4246 45.6107C45.2899 44.0906 45.8266 42.4046 45.9998 40.6624L46.9648 30.9902C47.0634 29.9997 46.9543 28.9994 46.6444 28.0539C46.3345 27.1084 45.8307 26.2385 45.1656 25.5004C44.5004 24.7623 43.6886 24.1724 42.7826 23.7687C41.8765 23.3649 40.8962 23.1563 39.9049 23.1562H37.8401C37.6185 22.8548 37.3878 22.5601 37.1483 22.2727C36.4707 21.4569 35.339 20.2492 34.0263 19.722C32.735 19.2019 31.025 19.2517 29.9181 19.3372L29.4498 19.38C29.0721 18.4091 28.3697 17.6005 27.4631 17.0929C26.6469 16.6203 25.7642 16.2744 24.8449 16.0669C23.7451 15.846 22.2232 15.8603 21.1198 15.903L20.9495 15.9101V15.9101Z" fill="white"/>
</svg>
