<svg width="386" height="261" viewBox="0 0 386 261" fill="none" xmlns="http://www.w3.org/2000/svg">
<rect x="336" y="38" width="50" height="50" fill="#112730"/>
<path fill-rule="evenodd" clip-rule="evenodd" d="M370.086 53.6657C370.514 53.2408 371.093 53.0017 371.697 53C372.3 52.9983 372.88 53.2343 373.311 53.6568C373.742 54.0793 373.989 54.6544 374 55.2579C374.01 55.8613 373.782 56.4446 373.366 56.8815L361.14 72.1644C360.93 72.3908 360.676 72.5724 360.394 72.6985C360.112 72.8245 359.808 72.8925 359.499 72.8982C359.19 72.9039 358.883 72.8473 358.597 72.7318C358.31 72.6162 358.05 72.4441 357.832 72.2257L349.731 64.1218C349.505 63.9115 349.324 63.6579 349.199 63.3761C349.073 63.0943 349.006 62.7902 349 62.4818C348.995 62.1733 349.052 61.867 349.167 61.581C349.283 61.2949 349.455 61.0351 349.673 60.817C349.891 60.5989 350.151 60.4269 350.437 60.3114C350.723 60.1959 351.029 60.1391 351.338 60.1446C351.646 60.15 351.95 60.2175 352.232 60.3431C352.514 60.4686 352.767 60.6496 352.978 60.8753L359.391 67.2855L370.028 53.7331C370.047 53.7093 370.067 53.6868 370.089 53.6657H370.086Z" fill="white"/>
<rect x="336" y="104" width="50" height="50" fill="#112730"/>
<path fill-rule="evenodd" clip-rule="evenodd" d="M370.086 119.666C370.514 119.241 371.093 119.002 371.697 119C372.3 118.998 372.88 119.234 373.311 119.657C373.742 120.079 373.989 120.654 374 121.258C374.01 121.861 373.782 122.445 373.366 122.882L361.14 138.164C360.93 138.391 360.676 138.572 360.394 138.698C360.112 138.825 359.808 138.892 359.499 138.898C359.19 138.904 358.883 138.847 358.597 138.732C358.31 138.616 358.05 138.444 357.832 138.226L349.731 130.122C349.505 129.911 349.324 129.658 349.199 129.376C349.073 129.094 349.006 128.79 349 128.482C348.995 128.173 349.052 127.867 349.167 127.581C349.283 127.295 349.455 127.035 349.673 126.817C349.891 126.599 350.151 126.427 350.437 126.311C350.723 126.196 351.029 126.139 351.338 126.145C351.646 126.15 351.95 126.218 352.232 126.343C352.514 126.469 352.767 126.65 352.978 126.875L359.391 133.286L370.028 119.733C370.047 119.709 370.067 119.687 370.089 119.666H370.086Z" fill="white"/>
<rect x="336" y="170" width="50" height="50" fill="#112730"/>
<path d="M370.239 205.363C369.76 205.841 369.112 206.11 368.436 206.11C367.76 206.11 367.111 205.841 366.633 205.363L361.001 198.926L355.369 205.361C355.133 205.601 354.852 205.792 354.542 205.922C354.231 206.053 353.898 206.121 353.562 206.122C353.225 206.124 352.892 206.058 352.581 205.93C352.27 205.802 351.987 205.614 351.749 205.376C351.511 205.138 351.322 204.855 351.194 204.544C351.066 204.233 351.001 203.899 351.002 203.563C351.004 203.226 351.072 202.893 351.202 202.583C351.333 202.273 351.524 201.992 351.764 201.756L357.623 195.063L351.761 188.367C351.522 188.131 351.331 187.85 351.2 187.539C351.069 187.229 351.001 186.896 351 186.56C350.999 186.223 351.064 185.89 351.192 185.579C351.32 185.267 351.509 184.985 351.747 184.747C351.985 184.509 352.267 184.32 352.579 184.192C352.89 184.064 353.223 183.999 353.56 184C353.896 184.001 354.229 184.069 354.539 184.2C354.85 184.331 355.131 184.522 355.367 184.761L361.001 191.201L366.633 184.761C366.869 184.522 367.15 184.331 367.461 184.2C367.771 184.069 368.104 184.001 368.44 184C368.777 183.999 369.11 184.064 369.421 184.192C369.733 184.32 370.015 184.509 370.253 184.747C370.491 184.985 370.68 185.267 370.808 185.579C370.936 185.89 371.001 186.223 371 186.56C370.999 186.896 370.931 187.229 370.8 187.539C370.669 187.85 370.478 188.131 370.239 188.367L364.379 195.063L370.239 201.756C370.476 201.992 370.664 202.274 370.792 202.583C370.92 202.893 370.986 203.224 370.986 203.559C370.986 203.894 370.92 204.226 370.792 204.536C370.664 204.845 370.476 205.126 370.239 205.363V205.363Z" fill="white"/>
<rect x="90" y="16" width="20" height="12" fill="#0D2E54"/>
<rect x="120" y="16" width="139" height="12" fill="#0D2E54"/>
<rect x="90" width="20" height="12" fill="#0D2E54"/>
<rect x="120" width="139" height="12" fill="#0D2E54"/>
<rect x="48" y="185" width="20" height="20" rx="10" fill="#0D2E54"/>
<rect x="48" y="216" width="20" height="20" rx="10" fill="#0D2E54"/>
<rect x="24" y="154" width="20" height="20" rx="10" fill="#0D2E54"/>
<rect x="24" y="185" width="20" height="20" rx="10" fill="#0D2E54"/>
<rect x="24" y="216" width="20" height="20" rx="10" fill="#0D2E54"/>
<rect y="154" width="20" height="20" rx="10" fill="#0D2E54"/>
<rect y="185" width="20" height="20" rx="10" fill="#0D2E54"/>
<rect y="216" width="20" height="20" rx="10" fill="#0D2E54"/>
<rect x="48" y="154" width="20" height="20" rx="10" fill="#0D2E54"/>
<rect x="41" y="198" width="150" height="200" transform="rotate(-90 41 198)" fill="#C4C4C4"/>
<rect x="56" y="135" width="50" height="50" fill="#112730"/>
<rect x="116" y="135" width="50" height="50" fill="#112730"/>
<rect x="56" y="72" width="170" height="16" fill="#112730"/>
<rect x="176" y="135" width="50" height="50" fill="#112730"/>
<rect x="160" y="61.0005" width="150" height="200" fill="#49B69D"/>
<path d="M295 189C295 200.867 291.482 212.468 284.889 222.335C278.296 232.202 268.925 239.892 257.961 244.433C246.998 248.975 234.934 250.163 223.295 247.848C211.656 245.532 200.965 239.818 192.574 231.427C184.183 223.036 178.468 212.345 176.153 200.706C173.838 189.067 175.026 177.003 179.568 166.039C184.109 155.076 191.799 145.705 201.666 139.112C211.533 132.519 223.134 129 235 129L235 140.659C225.44 140.659 216.093 143.495 208.144 148.806C200.194 154.118 193.998 161.668 190.339 170.501C186.68 179.334 185.723 189.054 187.588 198.431C189.453 207.809 194.058 216.422 200.818 223.183C207.579 229.943 216.192 234.548 225.57 236.413C234.947 238.278 244.667 237.321 253.5 233.662C262.333 230.003 269.883 223.807 275.195 215.857C280.506 207.908 283.342 198.561 283.342 189H295Z" fill="white"/>
<rect x="175" y="73.0005" width="120" height="8" fill="white"/>
<rect x="175" y="87.0005" width="120" height="8" fill="white"/>
</svg>
